<?xml version="1.0" encoding="UTF-8" standalone="no" ?>
<!DOCTYPE svg PUBLIC "-//W3C//DTD SVG 1.1//EN" "http://www.w3.org/Graphics/SVG/1.1/DTD/svg11.dtd">
<svg xmlns="http://www.w3.org/2000/svg" xmlns:xlink="http://www.w3.org/1999/xlink" version="1.1" width="250" height="250" viewBox="0 0 250 250" xml:space="preserve">
<desc>Created with Fabric.js 4.2.0</desc>
<defs>
</defs>
<rect x="0" y="0" width="100%" height="100%" fill="transparent"></rect>
<g transform="matrix(1 0 0 1 125 125)" id="a24fafa4-9364-4f5a-819e-3aa4dfa74dd2"  >
<rect style="stroke: none; stroke-width: 1; stroke-dasharray: none; stroke-linecap: butt; stroke-dashoffset: 0; stroke-linejoin: miter; stroke-miterlimit: 4; fill: rgb(255,255,255); fill-rule: nonzero; opacity: 1;" vector-effect="non-scaling-stroke"  x="-125" y="-125" rx="0" ry="0" width="250" height="250" />
</g>
<g transform="matrix(Infinity NaN NaN Infinity 0 0)" id="5f716ec9-8f40-4390-b19c-ccf07d73dc25"  >
</g>
<g transform="matrix(6.11 0 0 6.11 125 125)"  >
<path style="stroke: none; stroke-width: 1; stroke-dasharray: none; stroke-linecap: butt; stroke-dashoffset: 0; stroke-linejoin: miter; stroke-miterlimit: 4; fill: rgb(241,90,34); fill-rule: evenodd; opacity: 1;" vector-effect="non-scaling-stroke"  transform=" translate(-1077.1, -948.48)" d="M 1080.678 933.641 C 1085.7695790417097 930.9224808435997 1091.3210684635767 929.171556066557 1097.0510000000002 928.477 C 1097.0510000000002 928.477 1097.5140000000001 939.1619999999999 1089.112 950.261 L 1080.678 950.261 Z M 1057.1570000000002 968.477 C 1057.1570000000002 968.477 1056.5570000000002 954.677 1069.0510000000002 942.1569999999999 C 1071.5298001664803 939.6739460827789 1074.2804843547035 937.4780950222778 1077.2510000000002 935.6109999999999 L 1077.2510000000002 953.3329999999999 L 1086.5560000000003 953.3329999999999 Q 1085.8870000000002 954.0669999999999 1085.1560000000002 954.7959999999998 C 1077.5820741558703 962.3121712629594 1067.7408553327882 967.12083281225 1057.157 968.477 Z" stroke-linecap="round" />
</g>
</svg>